%TF.GenerationSoftware,KiCad,Pcbnew,6.0.1-79c1e3a40b~116~ubuntu20.04.1*%
%TF.CreationDate,2022-10-26T10:43:14+09:00*%
%TF.ProjectId,HV-terminal-branch-board-2-2-half,48562d74-6572-46d6-996e-616c2d627261,1.0*%
%TF.SameCoordinates,Original*%
%TF.FileFunction,Copper,L1,Top*%
%TF.FilePolarity,Positive*%
%FSLAX46Y46*%
G04 Gerber Fmt 4.6, Leading zero omitted, Abs format (unit mm)*
G04 Created by KiCad (PCBNEW 6.0.1-79c1e3a40b~116~ubuntu20.04.1) date 2022-10-26 10:43:14*
%MOMM*%
%LPD*%
G01*
G04 APERTURE LIST*
%TA.AperFunction,ConnectorPad*%
%ADD10C,12.800000*%
%TD*%
%TA.AperFunction,ComponentPad*%
%ADD11C,6.800000*%
%TD*%
%TA.AperFunction,ViaPad*%
%ADD12C,0.800000*%
%TD*%
%TA.AperFunction,Conductor*%
%ADD13C,6.000000*%
%TD*%
G04 APERTURE END LIST*
D10*
%TO.P,J5,1,Pin_1*%
%TO.N,VBAT(+{slash}-)*%
X95000000Y-67000000D03*
D11*
X95000000Y-67000000D03*
%TD*%
%TO.P,J1,1,Pin_1*%
%TO.N,VBAT(+{slash}-)*%
X111000000Y-67000000D03*
D10*
X111000000Y-67000000D03*
%TD*%
D11*
%TO.P,J2,1,Pin_1*%
%TO.N,VBAT(+{slash}-)*%
X95000000Y-83000000D03*
D10*
X95000000Y-83000000D03*
%TD*%
D11*
%TO.P,J6,1,Pin_1*%
%TO.N,VBAT(+{slash}-)*%
X111000000Y-83000000D03*
D10*
X111000000Y-83000000D03*
%TD*%
D12*
%TO.N,VBAT(+{slash}-)*%
X125000000Y-82500000D03*
X119996415Y-82542633D03*
X122503790Y-82492007D03*
X125000000Y-80000000D03*
X119996415Y-80042633D03*
X122503790Y-79992007D03*
X119976042Y-69975424D03*
X119984035Y-67479214D03*
X122500000Y-70000000D03*
X122507993Y-67503790D03*
X125000000Y-70000000D03*
X125007993Y-67503790D03*
X124989512Y-77495630D03*
X124946879Y-72492045D03*
X124997505Y-74999420D03*
X122500000Y-77500000D03*
X122457367Y-72496415D03*
X122507993Y-75003790D03*
X120000000Y-77500000D03*
X119957367Y-72496415D03*
X120007993Y-75003790D03*
X87500000Y-65000000D03*
X107507993Y-75003790D03*
X87500000Y-87500000D03*
X85000000Y-82500000D03*
X114996248Y-74964918D03*
X102480423Y-82468903D03*
X102500000Y-80000000D03*
X102492007Y-77496210D03*
X87500000Y-82500000D03*
X85000000Y-70000000D03*
X87500000Y-67500000D03*
X102492007Y-87496210D03*
X102500000Y-65000000D03*
X82500000Y-67500000D03*
X85000000Y-72500000D03*
X117500000Y-87500000D03*
X102500000Y-70000000D03*
X87500000Y-62500000D03*
X82500000Y-77500000D03*
X102488416Y-84972693D03*
X105000000Y-75000000D03*
X87500000Y-85000000D03*
X85000000Y-75000000D03*
X100000000Y-72500000D03*
X99974867Y-77457791D03*
X104949374Y-72492625D03*
X82500000Y-70000000D03*
X117500000Y-77500000D03*
X87500000Y-80000000D03*
X104992007Y-77496210D03*
X82500000Y-80000000D03*
X87500000Y-77500000D03*
X94992007Y-74996210D03*
X102507993Y-75003790D03*
X92500000Y-75000000D03*
X82500000Y-82500000D03*
X117500000Y-62500000D03*
X90000000Y-75000000D03*
X117504241Y-74968708D03*
X87500000Y-72500000D03*
X82500000Y-72500000D03*
X110000000Y-75000000D03*
X105000000Y-87500000D03*
X112507993Y-75003790D03*
X102500000Y-72500000D03*
X87500000Y-75000000D03*
X100000000Y-75000000D03*
X102500000Y-62500000D03*
X117453958Y-72492625D03*
X90000000Y-72500000D03*
X102500000Y-67500000D03*
X90000000Y-77500000D03*
X85000000Y-77500000D03*
X85000000Y-80000000D03*
X85000000Y-67500000D03*
X87500000Y-70000000D03*
X82500000Y-75000000D03*
X97500000Y-75000000D03*
%TD*%
D13*
%TO.N,VBAT(+{slash}-)*%
X111000000Y-83000000D02*
X111000000Y-67000000D01*
X95000000Y-83000000D02*
X95000000Y-67000000D01*
X95000000Y-83000000D02*
X111000000Y-83000000D01*
X111000000Y-67000000D02*
X95000000Y-67000000D01*
%TD*%
%TA.AperFunction,Conductor*%
%TO.N,VBAT(+{slash}-)*%
G36*
X92075554Y-60528002D02*
G01*
X92122047Y-60581658D01*
X92132151Y-60651932D01*
X92102657Y-60716512D01*
X92061677Y-60747726D01*
X91799382Y-60872834D01*
X91795323Y-60874956D01*
X91359234Y-61123697D01*
X91355338Y-61126112D01*
X90938643Y-61406120D01*
X90934932Y-61408816D01*
X90539858Y-61718594D01*
X90536362Y-61721548D01*
X90311217Y-61926414D01*
X90302956Y-61939981D01*
X90302962Y-61940234D01*
X90308462Y-61949252D01*
X92387945Y-64028735D01*
X92387949Y-64028738D01*
X94987190Y-66627980D01*
X95001131Y-66635592D01*
X95002966Y-66635461D01*
X95009580Y-66631210D01*
X96078049Y-65562741D01*
X97612048Y-64028741D01*
X97612058Y-64028732D01*
X99690170Y-61950620D01*
X99697757Y-61936726D01*
X99691496Y-61927574D01*
X99408131Y-61675107D01*
X99404564Y-61672157D01*
X99006317Y-61366570D01*
X99002542Y-61363888D01*
X98582963Y-61088275D01*
X98579012Y-61085883D01*
X98140390Y-60841750D01*
X98136267Y-60839648D01*
X97939449Y-60748288D01*
X97886083Y-60701463D01*
X97866502Y-60633220D01*
X97886926Y-60565225D01*
X97940868Y-60519065D01*
X97992500Y-60508000D01*
X108007433Y-60508000D01*
X108075554Y-60528002D01*
X108122047Y-60581658D01*
X108132151Y-60651932D01*
X108102657Y-60716512D01*
X108061677Y-60747726D01*
X107799382Y-60872834D01*
X107795323Y-60874956D01*
X107359234Y-61123697D01*
X107355338Y-61126112D01*
X106938643Y-61406120D01*
X106934932Y-61408816D01*
X106539858Y-61718594D01*
X106536362Y-61721548D01*
X106311217Y-61926414D01*
X106302956Y-61939981D01*
X106302962Y-61940234D01*
X106308462Y-61949252D01*
X108387945Y-64028735D01*
X108387949Y-64028738D01*
X109921951Y-65562741D01*
X110987190Y-66627980D01*
X111001131Y-66635592D01*
X111002966Y-66635461D01*
X111009580Y-66631210D01*
X113612048Y-64028741D01*
X113612058Y-64028732D01*
X115690170Y-61950620D01*
X115697757Y-61936726D01*
X115691496Y-61927574D01*
X115408131Y-61675107D01*
X115404564Y-61672157D01*
X115006317Y-61366570D01*
X115002542Y-61363888D01*
X114582963Y-61088275D01*
X114579012Y-61085883D01*
X114140390Y-60841750D01*
X114136267Y-60839648D01*
X113939449Y-60748288D01*
X113886083Y-60701463D01*
X113866502Y-60633220D01*
X113886926Y-60565225D01*
X113940868Y-60519065D01*
X113992500Y-60508000D01*
X118874000Y-60508000D01*
X118942121Y-60528002D01*
X118988614Y-60581658D01*
X119000000Y-60634000D01*
X119000000Y-67000000D01*
X125366000Y-67000000D01*
X125434121Y-67020002D01*
X125480614Y-67073658D01*
X125492000Y-67126000D01*
X125492000Y-82874000D01*
X125471998Y-82942121D01*
X125418342Y-82988614D01*
X125366000Y-83000000D01*
X119000000Y-83000000D01*
X119000000Y-89366000D01*
X118979998Y-89434121D01*
X118926342Y-89480614D01*
X118874000Y-89492000D01*
X113994384Y-89492000D01*
X113926263Y-89471998D01*
X113879770Y-89418342D01*
X113869666Y-89348068D01*
X113899160Y-89283488D01*
X113938952Y-89252849D01*
X114264594Y-89093318D01*
X114268650Y-89091144D01*
X114702087Y-88837865D01*
X114705985Y-88835391D01*
X115119701Y-88551052D01*
X115123405Y-88548301D01*
X115515183Y-88234427D01*
X115518685Y-88231404D01*
X115688649Y-88073464D01*
X115696768Y-88059810D01*
X115696747Y-88059204D01*
X115691514Y-88050724D01*
X113612055Y-85971265D01*
X113612051Y-85971262D01*
X111012810Y-83372020D01*
X110998869Y-83364408D01*
X110997034Y-83364539D01*
X110990420Y-83368790D01*
X108387952Y-85971259D01*
X108387942Y-85971268D01*
X106308494Y-88050716D01*
X106301004Y-88064433D01*
X106307526Y-88073861D01*
X106647880Y-88370769D01*
X106651452Y-88373662D01*
X107052897Y-88675075D01*
X107056708Y-88677724D01*
X107479132Y-88948916D01*
X107483111Y-88951269D01*
X107924288Y-89190809D01*
X107928406Y-89192853D01*
X108057548Y-89251163D01*
X108111402Y-89297426D01*
X108131696Y-89365460D01*
X108111986Y-89433666D01*
X108058530Y-89480388D01*
X108005697Y-89492000D01*
X97994384Y-89492000D01*
X97926263Y-89471998D01*
X97879770Y-89418342D01*
X97869666Y-89348068D01*
X97899160Y-89283488D01*
X97938952Y-89252849D01*
X98264594Y-89093318D01*
X98268650Y-89091144D01*
X98702087Y-88837865D01*
X98705985Y-88835391D01*
X99119701Y-88551052D01*
X99123405Y-88548301D01*
X99515183Y-88234427D01*
X99518685Y-88231404D01*
X99688649Y-88073464D01*
X99696768Y-88059810D01*
X99696747Y-88059204D01*
X99691514Y-88050724D01*
X97612055Y-85971265D01*
X97612051Y-85971262D01*
X95012810Y-83372020D01*
X94998869Y-83364408D01*
X94997034Y-83364539D01*
X94990420Y-83368790D01*
X92387952Y-85971259D01*
X92387942Y-85971268D01*
X90308494Y-88050716D01*
X90301004Y-88064433D01*
X90307526Y-88073861D01*
X90647880Y-88370769D01*
X90651452Y-88373662D01*
X91052897Y-88675075D01*
X91056708Y-88677724D01*
X91479132Y-88948916D01*
X91483111Y-88951269D01*
X91924288Y-89190809D01*
X91928406Y-89192853D01*
X92057548Y-89251163D01*
X92111402Y-89297426D01*
X92131696Y-89365460D01*
X92111986Y-89433666D01*
X92058530Y-89480388D01*
X92005697Y-89492000D01*
X87126000Y-89492000D01*
X87057879Y-89471998D01*
X87011386Y-89418342D01*
X87000000Y-89366000D01*
X87000000Y-83070085D01*
X88087605Y-83070085D01*
X88087654Y-83074697D01*
X88111301Y-83576133D01*
X88111689Y-83580759D01*
X88171996Y-84079107D01*
X88172718Y-84083668D01*
X88269365Y-84576277D01*
X88270424Y-84580794D01*
X88402886Y-85064994D01*
X88404263Y-85069387D01*
X88571842Y-85542619D01*
X88573535Y-85546893D01*
X88775313Y-86006556D01*
X88777328Y-86010723D01*
X89012225Y-86454369D01*
X89014548Y-86458390D01*
X89281301Y-86883631D01*
X89283892Y-86887444D01*
X89581095Y-87292037D01*
X89583957Y-87295647D01*
X89909983Y-87677375D01*
X89913107Y-87680772D01*
X89923697Y-87691473D01*
X89937598Y-87699158D01*
X89939257Y-87699048D01*
X89946139Y-87694651D01*
X92028737Y-85612053D01*
X92028738Y-85612051D01*
X94627980Y-83012810D01*
X94634357Y-83001131D01*
X95364408Y-83001131D01*
X95364539Y-83002966D01*
X95368790Y-83009580D01*
X97971259Y-85612048D01*
X97971263Y-85612053D01*
X100048319Y-87689109D01*
X100062263Y-87696723D01*
X100062866Y-87696680D01*
X100071149Y-87691140D01*
X100231404Y-87518685D01*
X100234427Y-87515183D01*
X100548301Y-87123405D01*
X100551052Y-87119701D01*
X100835391Y-86705985D01*
X100837865Y-86702087D01*
X101091144Y-86268650D01*
X101093318Y-86264594D01*
X101314171Y-85813779D01*
X101316048Y-85809564D01*
X101503290Y-85343786D01*
X101504857Y-85339432D01*
X101657479Y-84861205D01*
X101658721Y-84856755D01*
X101775913Y-84368616D01*
X101776825Y-84364092D01*
X101857951Y-83868686D01*
X101858530Y-83864105D01*
X101903183Y-83363771D01*
X101903412Y-83359807D01*
X101910998Y-83070085D01*
X104087605Y-83070085D01*
X104087654Y-83074697D01*
X104111301Y-83576133D01*
X104111689Y-83580759D01*
X104171996Y-84079107D01*
X104172718Y-84083668D01*
X104269365Y-84576277D01*
X104270424Y-84580794D01*
X104402886Y-85064994D01*
X104404263Y-85069387D01*
X104571842Y-85542619D01*
X104573535Y-85546893D01*
X104775313Y-86006556D01*
X104777328Y-86010723D01*
X105012225Y-86454369D01*
X105014548Y-86458390D01*
X105281301Y-86883631D01*
X105283892Y-86887444D01*
X105581095Y-87292037D01*
X105583957Y-87295647D01*
X105909983Y-87677375D01*
X105913107Y-87680772D01*
X105923697Y-87691473D01*
X105937598Y-87699158D01*
X105939257Y-87699048D01*
X105946139Y-87694651D01*
X108028737Y-85612053D01*
X108028738Y-85612051D01*
X110627980Y-83012810D01*
X110634357Y-83001131D01*
X111364408Y-83001131D01*
X111364539Y-83002966D01*
X111368790Y-83009580D01*
X113971259Y-85612048D01*
X113971263Y-85612053D01*
X116048319Y-87689109D01*
X116062263Y-87696723D01*
X116062866Y-87696680D01*
X116071149Y-87691140D01*
X116231404Y-87518685D01*
X116234427Y-87515183D01*
X116548301Y-87123405D01*
X116551052Y-87119701D01*
X116835391Y-86705985D01*
X116837865Y-86702087D01*
X117091144Y-86268650D01*
X117093318Y-86264594D01*
X117314171Y-85813779D01*
X117316048Y-85809564D01*
X117503290Y-85343786D01*
X117504857Y-85339432D01*
X117657479Y-84861205D01*
X117658721Y-84856755D01*
X117775913Y-84368616D01*
X117776825Y-84364092D01*
X117857951Y-83868686D01*
X117858530Y-83864105D01*
X117903183Y-83363771D01*
X117903412Y-83359807D01*
X117912782Y-83001970D01*
X117912761Y-82998022D01*
X117894354Y-82496033D01*
X117894015Y-82491418D01*
X117838929Y-81992451D01*
X117838253Y-81987875D01*
X117746771Y-81494277D01*
X117745769Y-81489792D01*
X117618375Y-81004196D01*
X117617046Y-80999794D01*
X117454435Y-80524846D01*
X117452778Y-80520531D01*
X117255825Y-80058782D01*
X117253863Y-80054612D01*
X117023618Y-79608521D01*
X117021347Y-79604492D01*
X116759040Y-79176444D01*
X116756512Y-79172639D01*
X116463546Y-78764935D01*
X116460742Y-78761319D01*
X116138712Y-78376176D01*
X116135633Y-78372756D01*
X116074824Y-78310006D01*
X116061002Y-78302174D01*
X116059692Y-78302248D01*
X116052282Y-78306928D01*
X113971263Y-80387947D01*
X113971262Y-80387949D01*
X111372020Y-82987190D01*
X111364408Y-83001131D01*
X110634357Y-83001131D01*
X110635592Y-82998869D01*
X110635461Y-82997034D01*
X110631210Y-82990420D01*
X108028741Y-80387952D01*
X108028737Y-80387947D01*
X105951407Y-78310617D01*
X105937463Y-78303003D01*
X105936506Y-78303071D01*
X105928697Y-78308235D01*
X105816204Y-78426778D01*
X105813138Y-78430256D01*
X105495183Y-78818721D01*
X105492396Y-78822393D01*
X105203739Y-79233110D01*
X105201219Y-79236991D01*
X104943420Y-79667740D01*
X104941204Y-79671771D01*
X104715644Y-80120248D01*
X104713714Y-80124463D01*
X104521602Y-80588261D01*
X104520006Y-80592553D01*
X104362368Y-81069206D01*
X104361090Y-81073608D01*
X104238789Y-81560507D01*
X104237832Y-81565008D01*
X104151523Y-82059541D01*
X104150895Y-82064127D01*
X104101036Y-82563649D01*
X104100747Y-82568240D01*
X104087605Y-83070085D01*
X101910998Y-83070085D01*
X101912782Y-83001970D01*
X101912761Y-82998022D01*
X101894354Y-82496033D01*
X101894015Y-82491418D01*
X101838929Y-81992451D01*
X101838253Y-81987875D01*
X101746771Y-81494277D01*
X101745769Y-81489792D01*
X101618375Y-81004196D01*
X101617046Y-80999794D01*
X101454435Y-80524846D01*
X101452778Y-80520531D01*
X101255825Y-80058782D01*
X101253863Y-80054612D01*
X101023618Y-79608521D01*
X101021347Y-79604492D01*
X100759040Y-79176444D01*
X100756512Y-79172639D01*
X100463546Y-78764935D01*
X100460742Y-78761319D01*
X100138712Y-78376176D01*
X100135633Y-78372756D01*
X100074824Y-78310006D01*
X100061002Y-78302174D01*
X100059692Y-78302248D01*
X100052282Y-78306928D01*
X97971263Y-80387947D01*
X97971262Y-80387949D01*
X95372020Y-82987190D01*
X95364408Y-83001131D01*
X94634357Y-83001131D01*
X94635592Y-82998869D01*
X94635461Y-82997034D01*
X94631210Y-82990420D01*
X92028741Y-80387952D01*
X92028737Y-80387947D01*
X89951407Y-78310617D01*
X89937463Y-78303003D01*
X89936506Y-78303071D01*
X89928697Y-78308235D01*
X89816204Y-78426778D01*
X89813138Y-78430256D01*
X89495183Y-78818721D01*
X89492396Y-78822393D01*
X89203739Y-79233110D01*
X89201219Y-79236991D01*
X88943420Y-79667740D01*
X88941204Y-79671771D01*
X88715644Y-80120248D01*
X88713714Y-80124463D01*
X88521602Y-80588261D01*
X88520006Y-80592553D01*
X88362368Y-81069206D01*
X88361090Y-81073608D01*
X88238789Y-81560507D01*
X88237832Y-81565008D01*
X88151523Y-82059541D01*
X88150895Y-82064127D01*
X88101036Y-82563649D01*
X88100747Y-82568240D01*
X88087605Y-83070085D01*
X87000000Y-83070085D01*
X87000000Y-83000000D01*
X80634000Y-83000000D01*
X80565879Y-82979998D01*
X80519386Y-82926342D01*
X80508000Y-82874000D01*
X80508000Y-77939981D01*
X90302956Y-77939981D01*
X90302962Y-77940234D01*
X90308462Y-77949252D01*
X92387945Y-80028735D01*
X92387949Y-80028738D01*
X93921951Y-81562741D01*
X94987190Y-82627980D01*
X95001131Y-82635592D01*
X95002966Y-82635461D01*
X95009580Y-82631210D01*
X97612048Y-80028741D01*
X97612058Y-80028732D01*
X99690170Y-77950620D01*
X99695980Y-77939981D01*
X106302956Y-77939981D01*
X106302962Y-77940234D01*
X106308462Y-77949252D01*
X108387945Y-80028735D01*
X108387949Y-80028738D01*
X109921951Y-81562741D01*
X110987190Y-82627980D01*
X111001131Y-82635592D01*
X111002966Y-82635461D01*
X111009580Y-82631210D01*
X113612048Y-80028741D01*
X113612058Y-80028732D01*
X115690170Y-77950620D01*
X115697757Y-77936726D01*
X115691496Y-77927574D01*
X115408131Y-77675107D01*
X115404564Y-77672157D01*
X115006317Y-77366570D01*
X115002542Y-77363888D01*
X114582963Y-77088275D01*
X114579012Y-77085883D01*
X114140390Y-76841750D01*
X114136267Y-76839648D01*
X113680908Y-76628277D01*
X113676683Y-76626501D01*
X113207062Y-76449046D01*
X113202706Y-76447580D01*
X112721378Y-76305004D01*
X112716891Y-76303852D01*
X112226404Y-76196909D01*
X112221878Y-76196095D01*
X111724871Y-76125360D01*
X111720284Y-76124878D01*
X111219451Y-76090735D01*
X111214816Y-76090589D01*
X110712836Y-76093218D01*
X110708222Y-76093411D01*
X110207756Y-76132798D01*
X110203173Y-76133329D01*
X109706945Y-76209262D01*
X109702419Y-76210125D01*
X109213069Y-76322201D01*
X109208627Y-76323392D01*
X108728802Y-76471005D01*
X108724452Y-76472520D01*
X108256725Y-76654880D01*
X108252508Y-76656705D01*
X107799382Y-76872834D01*
X107795323Y-76874956D01*
X107359234Y-77123697D01*
X107355338Y-77126112D01*
X106938643Y-77406120D01*
X106934932Y-77408816D01*
X106539858Y-77718594D01*
X106536362Y-77721548D01*
X106311217Y-77926414D01*
X106302956Y-77939981D01*
X99695980Y-77939981D01*
X99697757Y-77936726D01*
X99691496Y-77927574D01*
X99408131Y-77675107D01*
X99404564Y-77672157D01*
X99006317Y-77366570D01*
X99002542Y-77363888D01*
X98582963Y-77088275D01*
X98579012Y-77085883D01*
X98140390Y-76841750D01*
X98136267Y-76839648D01*
X97680908Y-76628277D01*
X97676683Y-76626501D01*
X97207062Y-76449046D01*
X97202706Y-76447580D01*
X96721378Y-76305004D01*
X96716891Y-76303852D01*
X96226404Y-76196909D01*
X96221878Y-76196095D01*
X95724871Y-76125360D01*
X95720284Y-76124878D01*
X95219451Y-76090735D01*
X95214816Y-76090589D01*
X94712836Y-76093218D01*
X94708222Y-76093411D01*
X94207756Y-76132798D01*
X94203173Y-76133329D01*
X93706945Y-76209262D01*
X93702419Y-76210125D01*
X93213069Y-76322201D01*
X93208627Y-76323392D01*
X92728802Y-76471005D01*
X92724452Y-76472520D01*
X92256725Y-76654880D01*
X92252508Y-76656705D01*
X91799382Y-76872834D01*
X91795323Y-76874956D01*
X91359234Y-77123697D01*
X91355338Y-77126112D01*
X90938643Y-77406120D01*
X90934932Y-77408816D01*
X90539858Y-77718594D01*
X90536362Y-77721548D01*
X90311217Y-77926414D01*
X90302956Y-77939981D01*
X80508000Y-77939981D01*
X80508000Y-72064433D01*
X90301004Y-72064433D01*
X90307526Y-72073861D01*
X90647880Y-72370769D01*
X90651452Y-72373662D01*
X91052897Y-72675075D01*
X91056708Y-72677724D01*
X91479132Y-72948916D01*
X91483111Y-72951269D01*
X91924288Y-73190809D01*
X91928406Y-73192853D01*
X92385937Y-73399437D01*
X92390227Y-73401187D01*
X92861643Y-73573700D01*
X92866049Y-73575132D01*
X93348835Y-73712657D01*
X93353318Y-73713758D01*
X93844903Y-73815561D01*
X93849435Y-73816327D01*
X94347147Y-73881852D01*
X94351759Y-73882288D01*
X94852932Y-73911186D01*
X94857535Y-73911282D01*
X95359458Y-73903397D01*
X95364109Y-73903153D01*
X95864105Y-73858530D01*
X95868686Y-73857951D01*
X96364092Y-73776825D01*
X96368616Y-73775913D01*
X96856755Y-73658721D01*
X96861205Y-73657479D01*
X97339432Y-73504857D01*
X97343786Y-73503290D01*
X97809564Y-73316048D01*
X97813779Y-73314171D01*
X98264594Y-73093318D01*
X98268650Y-73091144D01*
X98702087Y-72837865D01*
X98705985Y-72835391D01*
X99119701Y-72551052D01*
X99123405Y-72548301D01*
X99515183Y-72234427D01*
X99518685Y-72231404D01*
X99688649Y-72073464D01*
X99694019Y-72064433D01*
X106301004Y-72064433D01*
X106307526Y-72073861D01*
X106647880Y-72370769D01*
X106651452Y-72373662D01*
X107052897Y-72675075D01*
X107056708Y-72677724D01*
X107479132Y-72948916D01*
X107483111Y-72951269D01*
X107924288Y-73190809D01*
X107928406Y-73192853D01*
X108385937Y-73399437D01*
X108390227Y-73401187D01*
X108861643Y-73573700D01*
X108866049Y-73575132D01*
X109348835Y-73712657D01*
X109353318Y-73713758D01*
X109844903Y-73815561D01*
X109849435Y-73816327D01*
X110347147Y-73881852D01*
X110351759Y-73882288D01*
X110852932Y-73911186D01*
X110857535Y-73911282D01*
X111359458Y-73903397D01*
X111364109Y-73903153D01*
X111864105Y-73858530D01*
X111868686Y-73857951D01*
X112364092Y-73776825D01*
X112368616Y-73775913D01*
X112856755Y-73658721D01*
X112861205Y-73657479D01*
X113339432Y-73504857D01*
X113343786Y-73503290D01*
X113809564Y-73316048D01*
X113813779Y-73314171D01*
X114264594Y-73093318D01*
X114268650Y-73091144D01*
X114702087Y-72837865D01*
X114705985Y-72835391D01*
X115119701Y-72551052D01*
X115123405Y-72548301D01*
X115515183Y-72234427D01*
X115518685Y-72231404D01*
X115688649Y-72073464D01*
X115696768Y-72059810D01*
X115696747Y-72059204D01*
X115691514Y-72050724D01*
X113612055Y-69971265D01*
X113612051Y-69971262D01*
X111012810Y-67372020D01*
X110998869Y-67364408D01*
X110997034Y-67364539D01*
X110990420Y-67368790D01*
X108387952Y-69971259D01*
X108387942Y-69971268D01*
X106308494Y-72050716D01*
X106301004Y-72064433D01*
X99694019Y-72064433D01*
X99696768Y-72059810D01*
X99696747Y-72059204D01*
X99691514Y-72050724D01*
X97612055Y-69971265D01*
X97612051Y-69971262D01*
X95012810Y-67372020D01*
X94998869Y-67364408D01*
X94997034Y-67364539D01*
X94990420Y-67368790D01*
X92387952Y-69971259D01*
X92387942Y-69971268D01*
X90308494Y-72050716D01*
X90301004Y-72064433D01*
X80508000Y-72064433D01*
X80508000Y-67126000D01*
X80524418Y-67070085D01*
X88087605Y-67070085D01*
X88087654Y-67074697D01*
X88111301Y-67576133D01*
X88111689Y-67580759D01*
X88171996Y-68079107D01*
X88172718Y-68083668D01*
X88269365Y-68576277D01*
X88270424Y-68580794D01*
X88402886Y-69064994D01*
X88404263Y-69069387D01*
X88571842Y-69542619D01*
X88573535Y-69546893D01*
X88775313Y-70006556D01*
X88777328Y-70010723D01*
X89012225Y-70454369D01*
X89014548Y-70458390D01*
X89281301Y-70883631D01*
X89283892Y-70887444D01*
X89581095Y-71292037D01*
X89583957Y-71295647D01*
X89909983Y-71677375D01*
X89913107Y-71680772D01*
X89923697Y-71691473D01*
X89937598Y-71699158D01*
X89939257Y-71699048D01*
X89946139Y-71694651D01*
X92028737Y-69612053D01*
X92028738Y-69612051D01*
X94627980Y-67012810D01*
X94634357Y-67001131D01*
X95364408Y-67001131D01*
X95364539Y-67002966D01*
X95368790Y-67009580D01*
X97971259Y-69612048D01*
X97971263Y-69612053D01*
X100048319Y-71689109D01*
X100062263Y-71696723D01*
X100062866Y-71696680D01*
X100071149Y-71691140D01*
X100231404Y-71518685D01*
X100234427Y-71515183D01*
X100548301Y-71123405D01*
X100551052Y-71119701D01*
X100835391Y-70705985D01*
X100837865Y-70702087D01*
X101091144Y-70268650D01*
X101093318Y-70264594D01*
X101314171Y-69813779D01*
X101316048Y-69809564D01*
X101503290Y-69343786D01*
X101504857Y-69339432D01*
X101657479Y-68861205D01*
X101658721Y-68856755D01*
X101775913Y-68368616D01*
X101776825Y-68364092D01*
X101857951Y-67868686D01*
X101858530Y-67864105D01*
X101903183Y-67363771D01*
X101903412Y-67359807D01*
X101910998Y-67070085D01*
X104087605Y-67070085D01*
X104087654Y-67074697D01*
X104111301Y-67576133D01*
X104111689Y-67580759D01*
X104171996Y-68079107D01*
X104172718Y-68083668D01*
X104269365Y-68576277D01*
X104270424Y-68580794D01*
X104402886Y-69064994D01*
X104404263Y-69069387D01*
X104571842Y-69542619D01*
X104573535Y-69546893D01*
X104775313Y-70006556D01*
X104777328Y-70010723D01*
X105012225Y-70454369D01*
X105014548Y-70458390D01*
X105281301Y-70883631D01*
X105283892Y-70887444D01*
X105581095Y-71292037D01*
X105583957Y-71295647D01*
X105909983Y-71677375D01*
X105913107Y-71680772D01*
X105923697Y-71691473D01*
X105937598Y-71699158D01*
X105939257Y-71699048D01*
X105946139Y-71694651D01*
X108028737Y-69612053D01*
X108028738Y-69612051D01*
X110627980Y-67012810D01*
X110634357Y-67001131D01*
X111364408Y-67001131D01*
X111364539Y-67002966D01*
X111368790Y-67009580D01*
X113971259Y-69612048D01*
X113971263Y-69612053D01*
X116048319Y-71689109D01*
X116062263Y-71696723D01*
X116062866Y-71696680D01*
X116071149Y-71691140D01*
X116231404Y-71518685D01*
X116234427Y-71515183D01*
X116548301Y-71123405D01*
X116551052Y-71119701D01*
X116835391Y-70705985D01*
X116837865Y-70702087D01*
X117091144Y-70268650D01*
X117093318Y-70264594D01*
X117314171Y-69813779D01*
X117316048Y-69809564D01*
X117503290Y-69343786D01*
X117504857Y-69339432D01*
X117657479Y-68861205D01*
X117658721Y-68856755D01*
X117775913Y-68368616D01*
X117776825Y-68364092D01*
X117857951Y-67868686D01*
X117858530Y-67864105D01*
X117903183Y-67363771D01*
X117903412Y-67359807D01*
X117912782Y-67001970D01*
X117912761Y-66998022D01*
X117894354Y-66496033D01*
X117894015Y-66491418D01*
X117838929Y-65992451D01*
X117838253Y-65987875D01*
X117746771Y-65494277D01*
X117745769Y-65489792D01*
X117618375Y-65004196D01*
X117617046Y-64999794D01*
X117454435Y-64524846D01*
X117452778Y-64520531D01*
X117255825Y-64058782D01*
X117253863Y-64054612D01*
X117023618Y-63608521D01*
X117021347Y-63604492D01*
X116759040Y-63176444D01*
X116756512Y-63172639D01*
X116463546Y-62764935D01*
X116460742Y-62761319D01*
X116138712Y-62376176D01*
X116135633Y-62372756D01*
X116074824Y-62310006D01*
X116061002Y-62302174D01*
X116059692Y-62302248D01*
X116052282Y-62306928D01*
X113971263Y-64387947D01*
X113971262Y-64387949D01*
X111372020Y-66987190D01*
X111364408Y-67001131D01*
X110634357Y-67001131D01*
X110635592Y-66998869D01*
X110635461Y-66997034D01*
X110631210Y-66990420D01*
X108028741Y-64387952D01*
X108028737Y-64387947D01*
X105951407Y-62310617D01*
X105937463Y-62303003D01*
X105936506Y-62303071D01*
X105928697Y-62308235D01*
X105816204Y-62426778D01*
X105813138Y-62430256D01*
X105495183Y-62818721D01*
X105492396Y-62822393D01*
X105203739Y-63233110D01*
X105201219Y-63236991D01*
X104943420Y-63667740D01*
X104941204Y-63671771D01*
X104715644Y-64120248D01*
X104713714Y-64124463D01*
X104521602Y-64588261D01*
X104520006Y-64592553D01*
X104362368Y-65069206D01*
X104361090Y-65073608D01*
X104238789Y-65560507D01*
X104237832Y-65565008D01*
X104151523Y-66059541D01*
X104150895Y-66064127D01*
X104101036Y-66563649D01*
X104100747Y-66568240D01*
X104087605Y-67070085D01*
X101910998Y-67070085D01*
X101912782Y-67001970D01*
X101912761Y-66998022D01*
X101894354Y-66496033D01*
X101894015Y-66491418D01*
X101838929Y-65992451D01*
X101838253Y-65987875D01*
X101746771Y-65494277D01*
X101745769Y-65489792D01*
X101618375Y-65004196D01*
X101617046Y-64999794D01*
X101454435Y-64524846D01*
X101452778Y-64520531D01*
X101255825Y-64058782D01*
X101253863Y-64054612D01*
X101023618Y-63608521D01*
X101021347Y-63604492D01*
X100759040Y-63176444D01*
X100756512Y-63172639D01*
X100463546Y-62764935D01*
X100460742Y-62761319D01*
X100138712Y-62376176D01*
X100135633Y-62372756D01*
X100074824Y-62310006D01*
X100061002Y-62302174D01*
X100059692Y-62302248D01*
X100052282Y-62306928D01*
X97971263Y-64387947D01*
X97971262Y-64387949D01*
X95372020Y-66987190D01*
X95364408Y-67001131D01*
X94634357Y-67001131D01*
X94635592Y-66998869D01*
X94635461Y-66997034D01*
X94631210Y-66990420D01*
X92028741Y-64387952D01*
X92028737Y-64387947D01*
X89951407Y-62310617D01*
X89937463Y-62303003D01*
X89936506Y-62303071D01*
X89928697Y-62308235D01*
X89816204Y-62426778D01*
X89813138Y-62430256D01*
X89495183Y-62818721D01*
X89492396Y-62822393D01*
X89203739Y-63233110D01*
X89201219Y-63236991D01*
X88943420Y-63667740D01*
X88941204Y-63671771D01*
X88715644Y-64120248D01*
X88713714Y-64124463D01*
X88521602Y-64588261D01*
X88520006Y-64592553D01*
X88362368Y-65069206D01*
X88361090Y-65073608D01*
X88238789Y-65560507D01*
X88237832Y-65565008D01*
X88151523Y-66059541D01*
X88150895Y-66064127D01*
X88101036Y-66563649D01*
X88100747Y-66568240D01*
X88087605Y-67070085D01*
X80524418Y-67070085D01*
X80528002Y-67057879D01*
X80581658Y-67011386D01*
X80634000Y-67000000D01*
X87000000Y-67000000D01*
X87000000Y-60634000D01*
X87020002Y-60565879D01*
X87073658Y-60519386D01*
X87126000Y-60508000D01*
X92007433Y-60508000D01*
X92075554Y-60528002D01*
G37*
%TD.AperFunction*%
%TD*%
M02*
