M48
; DRILL file {KiCad 6.0.1-79c1e3a40b~116~ubuntu20.04.1} date Wed 26 Oct 2022 10:43:19 AM JST
; FORMAT={-:-/ absolute / inch / decimal}
; #@! TF.CreationDate,2022-10-26T10:43:19+09:00
; #@! TF.GenerationSoftware,Kicad,Pcbnew,6.0.1-79c1e3a40b~116~ubuntu20.04.1
; #@! TF.FileFunction,Plated,1,2,PTH
FMAT,2
INCH
; #@! TA.AperFunction,Plated,PTH,ViaDrill
T1C0.0157
; #@! TA.AperFunction,Plated,PTH,ComponentDrill
T2C0.2520
%
G90
G05
T1
X3.248Y-2.6575
X3.248Y-2.7559
X3.248Y-2.8543
X3.248Y-2.9528
X3.248Y-3.0512
X3.248Y-3.1496
X3.248Y-3.248
X3.3465Y-2.6575
X3.3465Y-2.7559
X3.3465Y-2.8543
X3.3465Y-2.9528
X3.3465Y-3.0512
X3.3465Y-3.1496
X3.3465Y-3.248
X3.4449Y-2.4606
X3.4449Y-2.5591
X3.4449Y-2.6575
X3.4449Y-2.7559
X3.4449Y-2.8543
X3.4449Y-2.9528
X3.4449Y-3.0512
X3.4449Y-3.1496
X3.4449Y-3.248
X3.4449Y-3.3465
X3.4449Y-3.4449
X3.5433Y-2.8543
X3.5433Y-2.9528
X3.5433Y-3.0512
X3.6417Y-2.9528
X3.7398Y-2.9526
X3.8386Y-2.9528
X3.936Y-3.0495
X3.937Y-2.8543
X3.937Y-2.9528
X4.0347Y-3.2468
X4.035Y-3.3454
X4.0351Y-3.051
X4.0351Y-3.4447
X4.0354Y-2.4606
X4.0354Y-2.5591
X4.0354Y-2.6575
X4.0354Y-2.7559
X4.0354Y-2.8543
X4.0354Y-3.1496
X4.0357Y-2.9529
X4.1319Y-2.854
X4.1335Y-3.051
X4.1339Y-2.9528
X4.1339Y-3.4449
X4.2326Y-2.9529
X4.3307Y-2.9528
X4.4294Y-2.9529
X4.5274Y-2.9514
X4.6242Y-2.854
X4.626Y-2.4606
X4.626Y-3.0512
X4.626Y-3.4449
X4.6262Y-2.9515
X4.7227Y-2.8542
X4.7235Y-2.7549
X4.7238Y-2.6567
X4.7243Y-3.1513
X4.7243Y-3.2497
X4.7244Y-3.0512
X4.7247Y-2.9529
X4.8212Y-2.8542
X4.8228Y-2.7559
X4.8228Y-3.0512
X4.823Y-3.1493
X4.823Y-3.2477
X4.8231Y-2.6576
X4.8231Y-2.9529
X4.9192Y-2.854
X4.9208Y-3.051
X4.9212Y-2.9527
X4.9213Y-2.7559
X4.9213Y-3.1496
X4.9213Y-3.248
X4.9216Y-2.6576
T2
X3.7402Y-2.6378
X3.7402Y-3.2677
X4.3701Y-2.6378
X4.3701Y-3.2677
T0
M30
