M48
; DRILL file {KiCad 6.0.1-79c1e3a40b~116~ubuntu20.04.1} date Tue 25 Oct 2022 08:32:11 PM JST
; FORMAT={-:-/ absolute / inch / decimal}
; #@! TF.CreationDate,2022-10-25T20:32:11+09:00
; #@! TF.GenerationSoftware,Kicad,Pcbnew,6.0.1-79c1e3a40b~116~ubuntu20.04.1
; #@! TF.FileFunction,Plated,1,2,PTH
FMAT,2
INCH
; #@! TA.AperFunction,Plated,PTH,ViaDrill
T1C0.0157
; #@! TA.AperFunction,Plated,PTH,ComponentDrill
T2C0.2520
%
G90
G05
T1
X3.248Y-2.6575
X3.248Y-2.7559
X3.248Y-2.8543
X3.248Y-2.9528
X3.248Y-3.0512
X3.248Y-3.1496
X3.248Y-3.248
X3.3465Y-2.6575
X3.3465Y-2.7559
X3.3465Y-2.8543
X3.3465Y-2.9528
X3.3465Y-3.0512
X3.3465Y-3.1496
X3.3465Y-3.248
X3.4449Y-2.4606
X3.4449Y-2.5591
X3.4449Y-2.6575
X3.4449Y-2.7559
X3.4449Y-2.8543
X3.4449Y-2.9528
X3.4449Y-3.0512
X3.4449Y-3.1496
X3.4449Y-3.248
X3.4449Y-3.3465
X3.4449Y-3.4449
X3.5433Y-2.8543
X3.5433Y-2.9528
X3.5433Y-3.0512
X3.6417Y-2.9528
X3.7398Y-2.9526
X3.8386Y-2.9528
X3.936Y-3.0495
X3.937Y-2.8543
X3.937Y-2.9528
X4.0347Y-3.2468
X4.035Y-3.3454
X4.0351Y-3.051
X4.0351Y-3.4447
X4.0354Y-2.4606
X4.0354Y-2.5591
X4.0354Y-2.6575
X4.0354Y-2.7559
X4.0354Y-2.8543
X4.0354Y-3.1496
X4.0357Y-2.9529
X4.1319Y-2.854
X4.1335Y-3.051
X4.1339Y-2.9528
X4.1339Y-3.4449
X4.2326Y-2.9529
X4.3307Y-2.9528
X4.4294Y-2.9529
X4.5274Y-2.9514
X4.6242Y-2.854
X4.626Y-2.4606
X4.626Y-3.0512
X4.626Y-3.4449
X4.6262Y-2.9515
X4.8228Y-2.4606
X4.8228Y-2.8543
X4.8228Y-2.9528
X4.8228Y-3.0512
X4.8228Y-3.4449
X4.9216Y-2.9529
X5.0197Y-2.9528
X5.1184Y-2.9529
X5.2165Y-2.9528
X5.314Y-2.854
X5.3144Y-3.051
X5.315Y-3.4449
X5.3153Y-2.9529
X5.4128Y-2.4605
X5.4128Y-2.8541
X5.4128Y-3.051
X5.4128Y-3.2478
X5.4128Y-3.4447
X5.4134Y-2.9528
X5.4134Y-3.1496
X5.4134Y-3.3465
X5.4137Y-2.5592
X5.4137Y-2.6576
X5.4137Y-2.7561
X5.5112Y-3.051
X5.5118Y-2.8543
X5.5121Y-2.9529
X5.6102Y-2.9528
X5.709Y-2.9529
X5.8071Y-2.9528
X5.9053Y-2.854
X5.9055Y-3.0512
X5.9058Y-2.9529
X6.0033Y-2.9528
X6.0041Y-2.4605
X6.0041Y-2.6565
X6.0041Y-2.8541
X6.0041Y-3.1498
X6.0041Y-3.2478
X6.0041Y-3.3457
X6.0041Y-3.4437
X6.0043Y-2.5592
X6.0043Y-2.7561
X6.0043Y-3.0513
X6.1013Y-2.6563
X6.1013Y-2.7543
X6.1013Y-2.854
X6.1013Y-3.1496
X6.1013Y-3.2476
X6.1021Y-2.9529
X6.1024Y-3.0512
X6.2001Y-2.6565
X6.2001Y-2.7544
X6.2001Y-2.8541
X6.2001Y-3.1498
X6.2001Y-3.2478
X6.2008Y-2.9528
X6.2011Y-3.0513
T2
X3.7402Y-2.6378
X3.7402Y-3.2677
X4.3701Y-2.6378
X4.3701Y-3.2677
X5.0787Y-2.6378
X5.0787Y-3.2677
X5.7087Y-2.6378
X5.7087Y-3.2677
T0
M30
